<?xml version="1.0" encoding="utf-8"?>
<!-- Generator: Adobe Illustrator 21.1.0, SVG Export Plug-In . SVG Version: 6.00 Build 0)  -->
<svg version="1.1" id="Layer_1" xmlns="http://www.w3.org/2000/svg" xmlns:xlink="http://www.w3.org/1999/xlink" x="0px" y="0px"
	 viewBox="0 0 512 512" style="enable-background:new 0 0 512 512;" xml:space="preserve">
<style type="text/css">
	.st0{fill:#FF6F00;}
</style>
<g>
	<g>
		<path class="st0" d="M418.5,0H93.5C70.2,0,51.3,18.9,51.3,42.2v316.4c0,4.4,3.6,8,8,8c4.4,0,8-3.6,8-8V42.2
			C67.3,27.8,79.1,16,93.5,16h324.9c14.4,0,26.2,11.7,26.2,26.2v427.6c0,14.4-11.7,26.2-26.2,26.2H93.5c-14.4,0-26.2-11.7-26.2-26.2
			v-68.4c0-4.4-3.6-8-8-8c-4.4,0-8,3.6-8,8v68.4c0,23.3,18.9,42.2,42.2,42.2h324.9c23.3,0,42.2-18.9,42.2-42.2V42.2
			C460.7,18.9,441.8,0,418.5,0z"/>
	</g>
</g>
<g>
	<g>
		<path class="st0" d="M392.8,34.2H196.1c-4.4,0-8,3.6-8,8c0,4.4,3.6,8,8,8h196.7c5,0,9.1,4.1,9.1,9.1v77c0,5-4.1,9.1-9.1,9.1H119.2
			c-5,0-9.1-4.1-9.1-9.1v-77c0-5,4.1-9.1,9.1-9.1h34.2c4.4,0,8-3.6,8-8c0-4.4-3.6-8-8-8h-34.2c-13.9,0-25.1,11.3-25.1,25.1v77
			c0,13.9,11.3,25.1,25.1,25.1h273.6c13.9,0,25.1-11.3,25.1-25.1v-77C417.9,45.5,406.7,34.2,392.8,34.2z"/>
	</g>
</g>
<g>
	<g>
		<path class="st0" d="M367.2,59.9h-25.7c-4.4,0-8,3.6-8,8s3.6,8,8,8h25.7c4.4,0,8-3.6,8-8S371.6,59.9,367.2,59.9z"/>
	</g>
</g>
<g>
	<g>
		<path class="st0" d="M367.2,119.7h-25.7c-4.4,0-8,3.6-8,8c0,4.4,3.6,8,8,8h25.7c4.4,0,8-3.6,8-8S371.6,119.7,367.2,119.7z"/>
	</g>
</g>
<g>
	<g>
		<path class="st0" d="M333,77c-4.4,0-8,3.6-8,8v25.7c0,4.4,3.6,8,8,8c4.4,0,8-3.6,8-8V85C341,80.6,337.4,77,333,77z"/>
	</g>
</g>
<g>
	<g>
		<path class="st0" d="M375.7,77c-4.4,0-8,3.6-8,8v25.7c0,4.4,3.6,8,8,8c4.4,0,8-3.6,8-8V85C383.7,80.6,380.1,77,375.7,77z"/>
	</g>
</g>
<g>
	<g>
		<path class="st0" d="M376.8,188.1h-85.5c-13.9,0-25.1,11.3-25.1,25.1v85.5c0,13.9,11.3,25.1,25.1,25.1h85.5
			c13.9,0,25.1-11.3,25.1-25.1v-85.5C401.9,199.4,390.6,188.1,376.8,188.1z M385.9,298.8c0,5-4.1,9.1-9.1,9.1h-85.5
			c-5,0-9.1-4.1-9.1-9.1v-85.5c0-5,4.1-9.1,9.1-9.1h85.5c5,0,9.1,4.1,9.1,9.1L385.9,298.8L385.9,298.8z"/>
	</g>
</g>
<g>
	<g>
		<path class="st0" d="M368.2,248h-68.4c-4.4,0-8,3.6-8,8c0,4.4,3.6,8,8,8h68.4c4.4,0,8-3.6,8-8S372.7,248,368.2,248z"/>
	</g>
</g>
<g>
	<g>
		<path class="st0" d="M376.8,342h-85.5c-13.9,0-25.1,11.3-25.1,25.1v85.5c0,13.9,11.3,25.1,25.1,25.1h85.5
			c13.9,0,25.1-11.3,25.1-25.1v-85.5C401.9,353.3,390.6,342,376.8,342z M385.9,452.7c0,5-4.1,9.1-9.1,9.1h-85.5
			c-5,0-9.1-4.1-9.1-9.1v-85.5c0-5,4.1-9.1,9.1-9.1h85.5c5,0,9.1,4.1,9.1,9.1L385.9,452.7L385.9,452.7z"/>
	</g>
</g>
<g>
	<g>
		<path class="st0" d="M368.2,384.8h-68.4c-4.4,0-8,3.6-8,8c0,4.4,3.6,8,8,8h68.4c4.4,0,8-3.6,8-8S372.7,384.8,368.2,384.8z"/>
	</g>
</g>
<g>
	<g>
		<path class="st0" d="M368.2,419h-68.4c-4.4,0-8,3.6-8,8c0,4.4,3.6,8,8,8h68.4c4.4,0,8-3.6,8-8C376.3,422.6,372.7,419,368.2,419z"
			/>
	</g>
</g>
<g>
	<g>
		<path class="st0" d="M220.7,188.1h-85.5c-13.9,0-25.1,11.3-25.1,25.1v85.5c0,13.9,11.3,25.1,25.1,25.1h85.5
			c13.9,0,25.1-11.3,25.1-25.1v-85.5C245.8,199.4,234.6,188.1,220.7,188.1z M229.8,298.8c0,5-4.1,9.1-9.1,9.1h-85.5
			c-5,0-9.1-4.1-9.1-9.1v-85.5c0-5,4.1-9.1,9.1-9.1h85.5c5,0,9.1,4.1,9.1,9.1V298.8z"/>
	</g>
</g>
<g>
	<g>
		<path class="st0" d="M212.2,248H186v-26.2c0-4.4-3.6-8-8-8c-4.4,0-8,3.6-8,8V248h-26.2c-4.4,0-8,3.6-8,8c0,4.4,3.6,8,8,8H170v26.2
			c0,4.4,3.6,8,8,8c4.4,0,8-3.6,8-8V264h26.2c4.4,0,8-3.6,8-8S216.6,248,212.2,248z"/>
	</g>
</g>
<g>
	<g>
		<path class="st0" d="M220.7,342h-85.5c-13.9,0-25.1,11.3-25.1,25.1v85.5c0,13.9,11.3,25.1,25.1,25.1h85.5
			c13.9,0,25.1-11.3,25.1-25.1v-85.5C245.8,353.3,234.6,342,220.7,342z M229.8,452.7c0,5-4.1,9.1-9.1,9.1h-85.5
			c-5,0-9.1-4.1-9.1-9.1v-85.5c0-5,4.1-9.1,9.1-9.1h85.5c5,0,9.1,4.1,9.1,9.1V452.7z"/>
	</g>
</g>
<g>
	<g>
		<path class="st0" d="M189.3,409.9l18.5-18.5c3.1-3.1,3.1-8.2,0-11.3c-3.1-3.1-8.2-3.1-11.3,0L178,398.6l-18.5-18.5
			c-3.1-3.1-8.2-3.1-11.3,0c-3.1,3.1-3.1,8.2,0,11.3l18.5,18.5l-18.5,18.5c-3.1,3.1-3.1,8.2,0,11.3c1.6,1.6,3.6,2.3,5.7,2.3
			s4.1-0.8,5.7-2.3l18.5-18.5l18.5,18.5c1.6,1.6,3.6,2.3,5.7,2.3c2.1,0,4.1-0.8,5.7-2.3c3.1-3.1,3.1-8.2,0-11.3L189.3,409.9z"/>
	</g>
</g>
</svg>
