<?xml version="1.0" encoding="utf-8"?>
<!-- Generator: Adobe Illustrator 21.1.0, SVG Export Plug-In . SVG Version: 6.00 Build 0)  -->
<svg version="1.1" id="Layer_1" xmlns="http://www.w3.org/2000/svg" xmlns:xlink="http://www.w3.org/1999/xlink" x="0px" y="0px"
	 viewBox="0 0 378.8 98.8" style="enable-background:new 0 0 378.8 98.8;" xml:space="preserve">
<style type="text/css">
	.st0{fill:#FFFFFF;}
	.st1{fill:none;stroke:#FFFFFF;}
	.st2{fill:url(#SVGID_1_);}
</style>
<path class="st0" d="M90.9,45.4C90.9,20.3,70.5,0,45.4,0S0,20.3,0,45.4c0,21.2,14.5,39,34.1,44c0.3,1.2,0.6,2.3,0.9,3.1l0,0
	c1.2,3,2.9,5.8,6.4,5.7c2.2,1,4.9,0.9,5.9-0.4c2.1,0.1,3.4-1,3.7-3.3c0-1.4-0.3-2.6-0.7-3.9C73.1,88.1,90.9,68.9,90.9,45.4z"/>
<g>
	<path class="st0" d="M124,82.9C124,83,124,83,124,82.9l-0.1,0.2c-0.1,0-0.1,0-0.2,0.1c-0.1,0-0.2,0-0.4,0c-0.2,0-0.3,0-0.4,0
		s-0.2,0-0.2-0.1c-0.1,0-0.1-0.1-0.1-0.1s-0.1-0.1-0.1-0.2l-0.9-2.8c-0.1-0.4-0.3-0.7-0.4-0.9c-0.2-0.2-0.3-0.5-0.5-0.6
		c-0.2-0.2-0.4-0.3-0.7-0.4c-0.3-0.1-0.6-0.1-0.9-0.1h-0.5v4.9V83l-0.1,0.1c-0.1,0-0.1,0-0.2,0.1c-0.1,0-0.2,0-0.4,0
		c-0.1,0-0.3,0-0.4,0s-0.2,0-0.2-0.1c-0.1,0-0.1,0-0.1-0.1v-0.1V78h-0.5c-0.4,0-0.7,0-1,0.1s-0.5,0.2-0.7,0.4
		c-0.2,0.2-0.4,0.4-0.5,0.6s-0.3,0.5-0.4,0.8l-0.9,2.8c0,0.1,0,0.1-0.1,0.2L113,83c-0.1,0-0.1,0.1-0.2,0.1s-0.2,0-0.4,0
		c-0.2,0-0.3,0-0.4,0s-0.2,0-0.2-0.1c-0.1,0-0.1-0.1-0.1-0.1v-0.1c0,0,0,0,0-0.1v-0.1v-0.1c0,0,0-0.1,0.1-0.2l0.9-2.5
		c0.1-0.4,0.3-0.7,0.4-1s0.3-0.5,0.5-0.7s0.4-0.4,0.6-0.5s0.5-0.2,0.7-0.3l0,0c-0.2-0.1-0.4-0.1-0.6-0.3c-0.2-0.1-0.4-0.3-0.5-0.4
		c-0.2-0.2-0.3-0.4-0.4-0.7c-0.1-0.3-0.3-0.6-0.4-1l-0.8-2.3c0-0.1-0.1-0.2-0.1-0.3c0-0.1,0-0.1,0-0.2V72l0.1-0.1
		c0.1,0,0.1,0,0.2-0.1c0.1,0,0.2,0,0.4,0c0.2,0,0.3,0,0.4,0s0.2,0,0.2,0.1c0.1,0,0.1,0.1,0.1,0.1s0,0.1,0.1,0.2l0.8,2.6
		c0.1,0.3,0.2,0.6,0.3,0.8c0.1,0.2,0.3,0.4,0.5,0.6s0.4,0.3,0.7,0.3c0.3,0.1,0.6,0.1,0.9,0.1h0.5V72v-0.1l0.1-0.1
		c0.1,0,0.1,0,0.2-0.1c0.1,0,0.2,0,0.4,0c0.1,0,0.3,0,0.4,0s0.2,0,0.2,0.1c0.1,0,0.1,0,0.1,0.1V72v4.6h0.5c0.3,0,0.6,0,0.9-0.1
		s0.5-0.2,0.7-0.4c0.2-0.2,0.4-0.4,0.5-0.6s0.2-0.5,0.3-0.8l0.8-2.6c0-0.1,0-0.1,0.1-0.2l0.1-0.1c0.1,0,0.1-0.1,0.2-0.1s0.2,0,0.4,0
		c0.1,0,0.3,0,0.4,0s0.2,0,0.2,0.1c0.1,0,0.1,0.1,0.1,0.1V72c0,0.1,0,0.1,0,0.2s0,0.2-0.1,0.3l-0.8,2.3c-0.1,0.4-0.2,0.7-0.4,0.9
		c-0.1,0.3-0.3,0.5-0.4,0.7c-0.2,0.2-0.3,0.3-0.5,0.5c-0.2,0.1-0.4,0.2-0.7,0.3l0,0c0.3,0.1,0.5,0.2,0.8,0.4
		c0.2,0.1,0.4,0.3,0.6,0.5s0.3,0.4,0.5,0.7c0.1,0.3,0.3,0.6,0.4,1l0.9,2.5c0,0.1,0,0.1,0.1,0.2v0.1C124,82.7,124,82.8,124,82.9
		C124,82.8,124,82.8,124,82.9z"/>
	<path class="st0" d="M135.5,82.9L135.5,82.9l-0.1,0.2c-0.1,0-0.1,0-0.2,0.1c-0.1,0-0.2,0-0.4,0c-0.1,0-0.3,0-0.4,0
		c-0.1,0-0.2,0-0.2-0.1c-0.1,0-0.1-0.1-0.1-0.1v-0.1v-7.3c0-0.2,0-0.4,0-0.6s0-0.4,0-0.5l0,0c0,0.1-0.1,0.2-0.2,0.3
		c-0.1,0.1-0.1,0.2-0.2,0.3c-0.1,0.1-0.1,0.2-0.2,0.3c-0.1,0.1-0.1,0.2-0.2,0.3l-4.8,7.3l-0.1,0.1l-0.1,0.1c-0.1,0-0.1,0-0.2,0
		c-0.1,0-0.2,0-0.3,0c-0.1,0-0.2,0-0.3,0c-0.1,0-0.1,0-0.2-0.1l-0.1-0.1v-0.1V72.1V72l0.1-0.1c0.1,0,0.1,0,0.2-0.1
		c0.1,0,0.2,0,0.3,0c0.1,0,0.3,0,0.4,0c0.1,0,0.2,0,0.2,0.1c0.1,0,0.1,0.1,0.1,0.1v0.1v7.4c0,0.2,0,0.3,0,0.5s0,0.4,0,0.5l0,0
		c0.1-0.1,0.2-0.3,0.3-0.5s0.3-0.4,0.4-0.6l4.8-7.3l0.1-0.1l0.1-0.1c0.1,0,0.1,0,0.2,0c0.1,0,0.2,0,0.3,0s0.2,0,0.3,0s0.1,0,0.2,0.1
		l0.1,0.1v0.1v10.7H135.5z"/>
	<path class="st0" d="M146.7,79.9c0,0.4,0,0.7-0.1,1s-0.2,0.6-0.4,0.8c-0.2,0.2-0.4,0.4-0.6,0.6c-0.2,0.2-0.5,0.3-0.8,0.4
		s-0.6,0.2-0.9,0.3c-0.3,0.1-0.7,0.1-1.1,0.1h-2.9c-0.1,0-0.3,0-0.4-0.1c-0.1-0.1-0.2-0.2-0.2-0.5v-10c0-0.2,0.1-0.4,0.2-0.5
		c0.1-0.1,0.2-0.1,0.4-0.1h2.5c0.7,0,1.2,0.1,1.6,0.2c0.4,0.1,0.8,0.3,1.1,0.6c0.3,0.2,0.5,0.5,0.6,0.9s0.2,0.7,0.2,1.2
		c0,0.3,0,0.5-0.1,0.8c-0.1,0.2-0.2,0.5-0.3,0.7s-0.3,0.4-0.5,0.5c-0.2,0.2-0.4,0.3-0.6,0.4c0.3,0.1,0.6,0.2,0.9,0.3
		c0.3,0.2,0.5,0.3,0.7,0.6c0.2,0.2,0.4,0.5,0.5,0.8C146.6,79.2,146.7,79.5,146.7,79.9z M144.5,74.9c0-0.3,0-0.5-0.1-0.7
		s-0.2-0.4-0.4-0.6s-0.4-0.3-0.6-0.3c-0.3-0.1-0.6-0.1-1-0.1h-1.5v3.6h1.7c0.4,0,0.7,0,0.9-0.2c0.2-0.1,0.4-0.2,0.6-0.4
		c0.2-0.2,0.3-0.4,0.3-0.6C144.4,75.4,144.5,75.1,144.5,74.9z M145.1,80c0-0.3-0.1-0.6-0.2-0.9c-0.1-0.3-0.3-0.5-0.5-0.6
		c-0.2-0.2-0.5-0.3-0.8-0.4s-0.7-0.1-1.2-0.1h-1.8v3.9h2.2c0.3,0,0.6,0,0.9-0.1c0.3-0.1,0.5-0.2,0.7-0.4c0.2-0.2,0.3-0.4,0.5-0.6
		C145.1,80.6,145.1,80.3,145.1,80z"/>
	<path class="st0" d="M158.2,82.9L158.2,82.9l-0.1,0.2c-0.1,0-0.1,0-0.2,0.1c-0.1,0-0.2,0-0.4,0c-0.1,0-0.3,0-0.4,0
		c-0.1,0-0.2,0-0.2-0.1c-0.1,0-0.1-0.1-0.1-0.1v-0.1v-7.3c0-0.2,0-0.4,0-0.6s0-0.4,0-0.5l0,0c0,0.1-0.1,0.2-0.2,0.3
		c-0.1,0.1-0.1,0.2-0.2,0.3c-0.1,0.1-0.1,0.2-0.2,0.3c-0.1,0.1-0.1,0.2-0.2,0.3l-4.8,7.3l-0.1,0.1l-0.1,0.1c-0.1,0-0.1,0-0.2,0
		c-0.1,0-0.2,0-0.3,0s-0.2,0-0.3,0s-0.2,0-0.2-0.1l-0.1-0.1v-0.1V72.1V72l0.1-0.1c0.1,0,0.1,0,0.2-0.1c0.1,0,0.2,0,0.3,0
		s0.3,0,0.4,0c0.1,0,0.2,0,0.2,0.1c0.1,0,0.1,0.1,0.1,0.1v0.1v7.4c0,0.2,0,0.3,0,0.5s0,0.4,0,0.5l0,0c0.1-0.1,0.2-0.3,0.3-0.5
		s0.3-0.4,0.4-0.6l4.8-7.3l0.1-0.1l0.1-0.1c0.1,0,0.1,0,0.2,0c0.1,0,0.2,0,0.3,0s0.2,0,0.3,0s0.1,0,0.2,0.1l0.1,0.1v0.1v10.7H158.2z
		"/>
	<path class="st0" d="M174.4,82.9C174.4,83,174.4,83,174.4,82.9l-0.1,0.2c-0.1,0-0.1,0-0.2,0.1c-0.1,0-0.2,0-0.4,0s-0.3,0-0.4,0
		c-0.1,0-0.2,0-0.2-0.1c-0.1,0-0.1-0.1-0.1-0.1s-0.1-0.1-0.1-0.2l-1-2.7c-0.1-0.4-0.3-0.7-0.5-0.9c-0.2-0.3-0.4-0.5-0.6-0.6
		c-0.2-0.2-0.5-0.3-0.7-0.4c-0.3-0.1-0.6-0.1-0.9-0.1h-0.6V83v0.1l-0.1,0.1c-0.1,0-0.1,0-0.2,0.1c-0.1,0-0.2,0-0.4,0
		c-0.1,0-0.3,0-0.4,0c-0.1,0-0.2,0-0.2-0.1c-0.1,0-0.1,0-0.1-0.1V83V72.1V72l0.1-0.1c0.1,0,0.1,0,0.2-0.1c0.1,0,0.2,0,0.4,0
		c0.1,0,0.3,0,0.4,0c0.1,0,0.2,0,0.2,0.1c0.1,0,0.1,0,0.1,0.1v0.1v4.6h0.6c0.3,0,0.6,0,0.9-0.1c0.3-0.1,0.5-0.2,0.7-0.4
		c0.2-0.2,0.4-0.4,0.5-0.6c0.2-0.3,0.3-0.6,0.4-0.9l0.8-2.4c0-0.1,0-0.1,0.1-0.2l0.1-0.1c0.1,0,0.1-0.1,0.2-0.1c0.1,0,0.2,0,0.4,0
		c0.1,0,0.3,0,0.4,0c0.1,0,0.2,0,0.2,0.1c0.1,0,0.1,0.1,0.1,0.1v0.1c0,0.1,0,0.1,0,0.2s0,0.2-0.1,0.3L173,75
		c-0.1,0.4-0.3,0.7-0.4,0.9c-0.1,0.3-0.3,0.5-0.4,0.7c-0.2,0.2-0.3,0.3-0.5,0.4s-0.4,0.2-0.6,0.3l0,0c0.3,0.1,0.5,0.2,0.7,0.3
		c0.2,0.1,0.4,0.3,0.6,0.5c0.2,0.2,0.3,0.4,0.5,0.7c0.1,0.3,0.3,0.6,0.4,1l1.1,2.7c0.1,0.1,0.1,0.3,0.1,0.3
		C174.4,82.8,174.4,82.8,174.4,82.9z"/>
	<path class="st0" d="M186.4,77.4c0,0.9-0.1,1.7-0.3,2.4c-0.2,0.7-0.5,1.3-1,1.9c-0.4,0.5-1,0.9-1.6,1.2c-0.6,0.3-1.4,0.4-2.2,0.4
		s-1.6-0.1-2.2-0.4c-0.6-0.3-1.1-0.6-1.5-1.1s-0.7-1.1-0.9-1.8c-0.2-0.7-0.3-1.5-0.3-2.4s0.1-1.7,0.3-2.4c0.2-0.7,0.5-1.3,1-1.8
		c0.4-0.5,1-0.9,1.6-1.2c0.6-0.3,1.4-0.4,2.2-0.4s1.5,0.1,2.2,0.4c0.6,0.2,1.1,0.6,1.5,1.1s0.7,1.1,0.9,1.8
		C186.3,75.7,186.4,76.5,186.4,77.4z M184.8,77.5c0-0.6-0.1-1.2-0.2-1.8c-0.1-0.5-0.3-1-0.6-1.4s-0.6-0.7-1-0.9
		c-0.4-0.2-1-0.3-1.6-0.3s-1.2,0.1-1.6,0.4c-0.4,0.2-0.8,0.6-1.1,1s-0.5,0.9-0.6,1.4s-0.2,1.1-0.2,1.7c0,0.7,0.1,1.3,0.2,1.8
		c0.1,0.6,0.3,1,0.6,1.4s0.6,0.7,1,0.9c0.4,0.2,1,0.3,1.6,0.3c0.7,0,1.2-0.1,1.6-0.4c0.4-0.2,0.8-0.6,1.1-1s0.5-0.9,0.6-1.4
		C184.7,78.7,184.8,78.1,184.8,77.5z"/>
	<path class="st0" d="M201.8,82.9L201.8,82.9l-0.1,0.2c-0.1,0-0.1,0-0.2,0.1c-0.1,0-0.2,0-0.4,0c-0.1,0-0.3,0-0.4,0
		c-0.1,0-0.2,0-0.2-0.1c-0.1,0-0.1,0-0.1-0.1v-0.1v-9.7l0,0l-3.9,9.8c0,0,0,0.1-0.1,0.1l-0.1,0.1c-0.1,0-0.1,0-0.2,0
		c-0.1,0-0.2,0-0.3,0s-0.2,0-0.3,0s-0.2,0-0.2,0c-0.1,0-0.1,0-0.1-0.1l-0.1-0.1l-3.8-9.8l0,0v9.7V83l-0.1,0.1c-0.1,0-0.1,0-0.2,0.1
		c-0.1,0-0.2,0-0.4,0c-0.1,0-0.3,0-0.4,0c-0.1,0-0.2,0-0.2-0.1c-0.1,0-0.1,0-0.1-0.1v-0.1V72.6c0-0.2,0.1-0.4,0.2-0.5
		c0.1-0.1,0.3-0.2,0.4-0.2h0.9c0.2,0,0.4,0,0.5,0.1c0.1,0,0.3,0.1,0.4,0.2c0.1,0.1,0.2,0.2,0.3,0.3c0.1,0.1,0.1,0.3,0.2,0.4L196,81
		l0,0l3.3-8.1c0.1-0.2,0.1-0.3,0.2-0.4c0.1-0.1,0.2-0.2,0.3-0.3c0.1-0.1,0.2-0.1,0.3-0.2c0.1,0,0.2,0,0.4,0h1c0.1,0,0.2,0,0.3,0
		s0.1,0.1,0.2,0.1c0.1,0.1,0.1,0.1,0.1,0.2s0.1,0.2,0.1,0.3v10.3H201.8z"/>
	<path class="st0" d="M215.7,77.2c0,0.6-0.1,1.2-0.3,1.7s-0.5,0.9-0.9,1.3s-0.9,0.7-1.5,0.9c-0.6,0.2-1.3,0.4-2,0.4v1.4V83l-0.1,0.1
		c-0.1,0-0.1,0-0.2,0c-0.1,0-0.2,0-0.3,0s-0.3,0-0.3,0c-0.1,0-0.2,0-0.2,0c-0.1,0-0.1,0-0.1-0.1v-0.1v-1.4c-0.8,0-1.5-0.1-2.1-0.3
		c-0.6-0.2-1.1-0.5-1.4-0.8c-0.4-0.4-0.7-0.8-0.9-1.3s-0.3-1.1-0.3-1.8c0-0.6,0.1-1.1,0.3-1.6s0.5-0.9,0.9-1.3s0.9-0.7,1.4-0.9
		c0.6-0.2,1.3-0.4,2-0.4v-1.3v-0.1l0.1-0.1c0.1,0,0.1,0,0.2-0.1c0.1,0,0.2,0,0.3,0s0.2,0,0.3,0s0.2,0,0.2,0.1c0.1,0,0.1,0,0.1,0.1
		v0.1V73c0.8,0,1.5,0.1,2.1,0.3c0.6,0.2,1.1,0.5,1.4,0.8c0.4,0.3,0.7,0.8,0.9,1.3C215.6,75.9,215.7,76.5,215.7,77.2z M209.6,74.2
		c-0.6,0-1.1,0.1-1.5,0.3c-0.4,0.2-0.7,0.4-1,0.6c-0.2,0.3-0.4,0.6-0.5,0.9s-0.2,0.7-0.2,1.1s0.1,0.9,0.2,1.2
		c0.1,0.4,0.3,0.7,0.5,0.9c0.2,0.3,0.6,0.5,1,0.6c0.4,0.2,0.9,0.3,1.5,0.3V74.2z M214.1,77.3c0-0.4-0.1-0.8-0.2-1.2
		c-0.1-0.4-0.3-0.7-0.5-0.9c-0.2-0.3-0.6-0.5-1-0.6c-0.4-0.2-0.9-0.3-1.5-0.3v6.1c0.6,0,1.1-0.1,1.4-0.3c0.4-0.2,0.7-0.4,1-0.7
		c0.3-0.3,0.4-0.6,0.5-0.9C214.1,78,214.1,77.7,214.1,77.3z"/>
	<path class="st0" d="M228.2,77.4c0,0.9-0.1,1.7-0.3,2.4c-0.2,0.7-0.5,1.3-1,1.9c-0.4,0.5-1,0.9-1.6,1.2c-0.6,0.3-1.4,0.4-2.2,0.4
		s-1.6-0.1-2.2-0.4c-0.6-0.3-1.1-0.6-1.5-1.1s-0.7-1.1-0.9-1.8c-0.2-0.7-0.3-1.5-0.3-2.4s0.1-1.7,0.3-2.4c0.2-0.7,0.5-1.3,1-1.8
		c0.4-0.5,1-0.9,1.6-1.2c0.6-0.3,1.4-0.4,2.2-0.4s1.5,0.1,2.2,0.4c0.6,0.2,1.1,0.6,1.5,1.1s0.7,1.1,0.9,1.8
		C228.1,75.7,228.2,76.5,228.2,77.4z M226.6,77.5c0-0.6-0.1-1.2-0.2-1.8c-0.1-0.5-0.3-1-0.6-1.4s-0.6-0.7-1-0.9
		c-0.4-0.2-1-0.3-1.6-0.3s-1.2,0.1-1.6,0.4c-0.4,0.2-0.8,0.6-1.1,1s-0.5,0.9-0.6,1.4s-0.2,1.1-0.2,1.7c0,0.7,0.1,1.3,0.2,1.8
		c0.1,0.6,0.3,1,0.6,1.4s0.6,0.7,1,0.9c0.4,0.2,1,0.3,1.6,0.3s1.2-0.1,1.6-0.4c0.4-0.2,0.8-0.6,1.1-1s0.5-0.9,0.6-1.4
		C226.6,78.7,226.6,78.1,226.6,77.5z"/>
	<path class="st0" d="M238.3,75.2c0,0.6-0.1,1.1-0.3,1.5s-0.4,0.8-0.8,1.1c-0.3,0.3-0.8,0.6-1.3,0.7c-0.5,0.2-1.1,0.3-1.8,0.3h-1.3
		v4v0.1l-0.1,0.1c-0.1,0-0.1,0-0.2,0.1c-0.1,0-0.2,0-0.4,0c-0.1,0-0.3,0-0.4,0c-0.1,0-0.2,0-0.2-0.1c-0.1,0-0.1,0-0.1-0.1v-0.1V72.6
		c0-0.2,0.1-0.4,0.2-0.5c0.1-0.1,0.3-0.1,0.4-0.1h2.4c0.2,0,0.5,0,0.7,0s0.5,0.1,0.8,0.1c0.3,0.1,0.6,0.2,0.9,0.4
		c0.3,0.2,0.6,0.4,0.8,0.7c0.2,0.3,0.4,0.6,0.5,0.9C238.2,74.4,238.3,74.8,238.3,75.2z M236.7,75.3c0-0.5-0.1-0.8-0.3-1.1
		c-0.2-0.3-0.4-0.5-0.6-0.7c-0.3-0.1-0.5-0.2-0.8-0.3c-0.3,0-0.5-0.1-0.8-0.1h-1.4v4.5h1.3c0.4,0,0.8-0.1,1.1-0.2s0.5-0.3,0.7-0.5
		s0.4-0.4,0.5-0.7C236.7,76,236.7,75.6,236.7,75.3z"/>
	<path class="st0" d="M248.3,72.6c0,0.1,0,0.2,0,0.3c0,0.1,0,0.1-0.1,0.2l-0.1,0.1H248h-3.1v9.7V83l-0.1,0.1c-0.1,0-0.1,0-0.2,0.1
		c-0.1,0-0.2,0-0.4,0c-0.1,0-0.3,0-0.4,0c-0.1,0-0.2,0-0.2-0.1c-0.1,0-0.1,0-0.1-0.1v-0.1v-9.7h-3.1h-0.1l-0.1-0.1
		c0,0,0-0.1-0.1-0.2c0-0.1,0-0.2,0-0.3c0-0.1,0-0.2,0-0.3c0-0.1,0-0.2,0.1-0.2c0-0.1,0.1-0.1,0.1-0.1h0.1h7.8h0.1l0.1,0.1
		c0,0.1,0,0.1,0.1,0.2C248.3,72.4,248.3,72.4,248.3,72.6z"/>
	<path class="st0" d="M258.9,82.9L258.9,82.9l-0.1,0.2c-0.1,0-0.1,0-0.2,0.1c-0.1,0-0.2,0-0.4,0c-0.1,0-0.3,0-0.4,0s-0.2,0-0.2-0.1
		c-0.1,0-0.1,0-0.1-0.1v-0.1v-5h-5.1v5V83l-0.1,0.1c-0.1,0-0.1,0-0.2,0.1c-0.1,0-0.2,0-0.4,0c-0.1,0-0.3,0-0.4,0
		c-0.1,0-0.2,0-0.2-0.1c-0.1,0-0.1,0-0.1-0.1v-0.1V72.1V72l0.1-0.1c0.1,0,0.1,0,0.2-0.1c0.1,0,0.2,0,0.4,0c0.1,0,0.3,0,0.4,0
		c0.1,0,0.2,0,0.2,0.1c0.1,0,0.1,0,0.1,0.1v0.1v4.5h5.1v-4.5V72l0.1-0.1c0.1,0,0.1,0,0.2-0.1c0.1,0,0.2,0,0.4,0c0.1,0,0.3,0,0.4,0
		s0.2,0,0.2,0.1c0.1,0,0.1,0,0.1,0.1v0.1V82.9z"/>
	<path class="st0" d="M272.1,77.4c0,0.9-0.1,1.7-0.3,2.4c-0.2,0.7-0.5,1.3-1,1.9c-0.4,0.5-1,0.9-1.6,1.2c-0.6,0.3-1.4,0.4-2.2,0.4
		c-0.8,0-1.6-0.1-2.2-0.4s-1.1-0.6-1.5-1.1s-0.7-1.1-0.9-1.8c-0.2-0.7-0.3-1.5-0.3-2.4s0.1-1.7,0.3-2.4c0.2-0.7,0.5-1.3,1-1.8
		c0.4-0.5,1-0.9,1.6-1.2c0.6-0.3,1.4-0.4,2.2-0.4c0.8,0,1.5,0.1,2.2,0.4c0.6,0.2,1.1,0.6,1.5,1.1s0.7,1.1,0.9,1.8
		C272,75.7,272.1,76.5,272.1,77.4z M270.5,77.5c0-0.6-0.1-1.2-0.2-1.8c-0.1-0.5-0.3-1-0.6-1.4c-0.3-0.4-0.6-0.7-1-0.9
		c-0.4-0.2-1-0.3-1.6-0.3s-1.2,0.1-1.6,0.4c-0.4,0.2-0.8,0.6-1.1,1c-0.3,0.4-0.5,0.9-0.6,1.4s-0.2,1.1-0.2,1.7
		c0,0.7,0.1,1.3,0.2,1.8c0.1,0.6,0.3,1,0.6,1.4c0.3,0.4,0.6,0.7,1,0.9c0.4,0.2,1,0.3,1.6,0.3s1.2-0.1,1.6-0.4c0.4-0.2,0.8-0.6,1.1-1
		c0.3-0.4,0.5-0.9,0.6-1.4C270.5,78.7,270.5,78.1,270.5,77.5z"/>
</g>
<g>
	<g>
		<g>
			<path class="st0" d="M376.9,29.5L376.9,29.5L376.9,29.5c-0.1,0.1-0.1,0.1-0.2,0.1s-0.1,0-0.2,0s-0.1,0-0.1,0h-0.1h-0.1
				c0,0,0,0,0-0.1l-0.4-1.1c0-0.1-0.1-0.2-0.1-0.3c-0.1-0.1-0.1-0.2-0.2-0.3c-0.1-0.1-0.2-0.1-0.3-0.2c-0.1,0-0.2-0.1-0.4-0.1h-0.4
				v2l0,0c0,0,0,0-0.1,0c0,0,0,0-0.1,0h-0.1c-0.1,0-0.1,0-0.1,0h-0.1c0,0,0,0-0.1,0l0,0v-4.3c0-0.1,0-0.2,0.1-0.2l0.1-0.1h1
				c0.1,0,0.2,0,0.3,0c0.1,0,0.1,0,0.2,0c0.2,0,0.3,0.1,0.5,0.1c0.1,0.1,0.2,0.1,0.3,0.3c0.1,0.1,0.1,0.2,0.2,0.4
				c0,0.1,0.1,0.3,0.1,0.4s0,0.3-0.1,0.4c0,0.1-0.1,0.2-0.2,0.3c-0.1,0.1-0.2,0.2-0.3,0.2c-0.1,0.1-0.2,0.1-0.4,0.2
				c0.1,0,0.1,0.1,0.2,0.1c0,0.1,0.1,0.1,0.2,0.2s0.1,0.2,0.2,0.3c0,0.1,0.1,0.2,0.1,0.3l0.4,1C376.9,29.3,376.9,29.3,376.9,29.5
				C376.9,29.4,376.9,29.4,376.9,29.5z M376,26.2c0-0.2,0-0.3-0.1-0.5c-0.1-0.1-0.2-0.2-0.4-0.3c-0.1,0-0.1,0-0.2,0s-0.2,0-0.3,0
				h-0.5V27h0.6c0.2,0,0.3,0,0.4-0.1c0.1,0,0.2-0.1,0.3-0.2c0.1-0.1,0.1-0.2,0.2-0.3C376,26.4,376,26.3,376,26.2z"/>
		</g>
		<path class="st0" d="M371.7,27.3c0-2,1.6-3.7,3.6-3.7l0,0c2,0,3.6,1.6,3.6,3.7l0,0c0,2-1.6,3.7-3.6,3.7l0,0
			C373.3,30.9,371.7,29.3,371.7,27.3L371.7,27.3z M372.3,27.3c0,1.7,1.3,3.1,3,3.1l0,0c1.7,0,3-1.4,3-3.1l0,0c0-1.7-1.3-3.1-3-3.1
			l0,0C373.6,24.2,372.3,25.6,372.3,27.3L372.3,27.3L372.3,27.3z"/>
	</g>
	<g>
		<path class="st0" d="M148.8,36L148.8,36c0,0,3.3,0.1,3.3-3.3s-3.3-3.3-3.3-3.3l0,0h-14.4c-0.8,0-1.4,0.3-2,0.7
			c-0.9,0.6-1.1,1.8-1.1,2.7c0,0.1,0,0.1,0,0.1v25.8c0,0.9,0.3,1.9,1.1,2.6c0.8,0.7,2,0.7,2,0.7h14.4l0,0c0,0,3.3,0.1,3.3-3.3
			c0-3.4-3.3-3.3-3.3-3.3h-10.3v-7.3h9.3l0,0c0,0,3.3,0.1,3.3-3.3c0-3.4-3.3-3.3-3.3-3.3h-9.3V36H148.8z"/>
		<path class="st0" d="M180.9,32.8L180.9,32.8c0-0.8-0.1-1.8-0.8-2.5s-1.4-0.9-2.2-0.9l0,0h-18.8c0,0,0,0-0.1,0
			c-0.8,0-1.4,0.1-2.2,0.9s-0.8,2.4-0.8,2.4v26c0,0-0.2,3.3,3.6,3.3s3.6-3.3,3.6-3.3V36h10.4v22.7c0,0-0.2,3.3,3.6,3.3
			s3.6-3.3,3.6-3.3L180.9,32.8L180.9,32.8z"/>
		<path class="st0" d="M244.7,38.6L244.7,38.6c-0.6-2-1.5-3.8-2.8-5.2c-1.3-1.4-2.9-2.5-4.8-3.2c-1.9-0.7-4-1.1-6.4-1.1
			c-2.5,0-4.7,0.4-6.7,1.2c-1.9,0.8-3.6,1.9-4.9,3.5c-1.3,1.5-2.3,3.3-2.9,5.4c-0.6,2.1-0.9,4.3-0.9,6.7c0,2.5,0.3,4.8,0.9,6.8
			c0.6,2,1.5,3.8,2.8,5.3s2.9,2.6,4.7,3.3c1.9,0.7,4.1,1.1,6.5,1.1c2.5,0,4.7-0.4,6.7-1.2c1.9-0.8,3.6-2,4.9-3.5
			c1.3-1.5,2.3-3.3,2.9-5.4c0.6-2.1,0.9-4.4,0.9-6.9C245.6,42.9,245.3,40.6,244.7,38.6z M237.7,49.8c-0.3,1.2-0.7,2.3-1.3,3.2
			s-1.3,1.5-2.3,2c-0.9,0.5-2.1,0.8-3.7,0.8c-1.6,0-2.8-0.3-3.7-0.7c-0.9-0.5-1.6-1.1-2.2-1.9c-0.6-0.8-1-1.9-1.3-3.2
			s-0.4-2.8-0.4-4.4c0-1.4,0.2-2.8,0.4-4.1c0.3-1.2,0.7-2.2,1.3-3.1c0.6-0.8,1.4-1.5,2.3-2c0.9-0.5,2.1-0.7,3.6-0.7
			c1.6,0,2.8,0.3,3.7,0.7c1,0.5,1.7,1.1,2.2,1.9c0.6,0.9,1,1.9,1.3,3.1c0.3,1.3,0.4,2.7,0.4,4.3C238.1,47.1,238,48.5,237.7,49.8z"/>
		<path class="st0" d="M317.2,38.8c-0.6-2-1.5-3.8-2.7-5.2s-2.8-2.5-4.6-3.2c-1.8-0.7-3.9-1.1-6.1-1.1s-4.2,0.3-6,1
			c-1.7,0.7-3.3,1.7-4.5,2.9c-1.2,1.3-2.2,2.8-2.8,4.5c-0.5,1.3-0.8,2.6-1.1,4h-3V36l0,0v-3.3c0,0,0.2-3.3-3.6-3.3
			c-3.8,0-3.6,3.3-3.6,3.3v22.7l0,0v3.3c0,0-0.2,3.3,3.6,3.3c3.8,0,3.6-3.3,3.6-3.3V48.2h2.8c0.1,1.7,0.4,3.2,0.9,4.7
			c0.6,1.9,1.5,3.5,2.7,4.9s2.7,2.5,4.5,3.2c1.8,0.8,3.8,1.1,6.1,1.1c2.4,0,4.5-0.4,6.4-1.2c1.8-0.8,3.4-1.9,4.7-3.4
			c1.3-1.5,2.2-3.3,2.8-5.3c0.6-2,0.9-4.3,0.9-6.8C318.1,43,317.8,40.8,317.2,38.8z M310.5,49.9c-0.3,1.3-0.7,2.3-1.3,3.2
			c-0.6,0.9-1.3,1.5-2.2,2c-0.9,0.5-2,0.8-3.6,0.8c-1.1,0-1.9-0.1-2.7-0.4c-0.7-0.3-1.4-0.6-1.9-1s-1-0.9-1.3-1.5
			c-0.4-0.6-0.7-1.3-0.9-2.1c-0.3-0.8-0.4-1.6-0.5-2.5s-0.1-1.9-0.1-2.8c0-1.5,0.1-2.8,0.4-4.1c0.2-1.3,0.7-2.3,1.2-3.2
			c0.6-0.9,1.3-1.5,2.2-2.1c0.9-0.5,2.1-0.8,3.6-0.8s2.7,0.3,3.5,0.7c0.9,0.5,1.6,1.1,2.2,2s1,2,1.3,3.2c0.3,1.3,0.4,2.8,0.4,4.3
			C310.9,47.2,310.8,48.6,310.5,49.9z"/>
		<path class="st0" d="M346.3,58.9L346,59L346.3,58.9c-0.1-0.3-0.1-0.5-0.2-0.8l0,0l-0.1-0.3l-0.1-0.2l0,0l-2.7-6.7
			c-0.4-1-0.8-1.9-1.3-2.7c-0.4-0.8-1-1.5-1.6-2.1c-0.4-0.4-0.8-0.7-1.2-1c0.3-0.2,0.6-0.5,0.9-0.8c0.5-0.6,1-1.3,1.4-2
			c0.4-0.8,0.8-1.6,1.2-2.6l2.4-6c0.1-0.4,0.2-0.6,0.3-0.9c0.1-0.3,0.1-0.6,0.1-1c0-0.3-0.1-0.7-0.2-1.1c-0.3-0.6-0.8-0.8-1.1-1
			c-0.4-0.1-0.7-0.2-1-0.3c-0.4,0-0.7-0.1-1.2-0.1s-0.9,0-1.3,0.1s-0.7,0.1-1.1,0.3c-0.4,0.2-0.7,0.5-1,0.9
			c-0.2,0.3-0.3,0.5-0.4,0.8l-2.3,6.3c-0.3,0.8-0.6,1.5-1,2.1c-0.3,0.5-1.2,1.2-2.4,1.6c-0.5,0.2-1.2,0.3-2,0.3h-1.6V36l0,0v-3.3
			c0,0,0.2-3.3-3.6-3.3c-3.8,0-3.6,3.3-3.6,3.3v22.7l0,0v3.3c0,0-0.2,3.3,3.6,3.3c3.8,0,3.6-3.3,3.6-3.3V48.2h1.6
			c0.8,0,1.5,0.1,2.1,0.3s1,0.4,1.5,0.7c0.4,0.3,0.8,1.1,1.2,1.6c0.4,0.6,0.7,1.3,1.1,2.2l2.8,7.1c0,0.2,0.2,0.5,0.4,0.8
			c0.3,0.4,0.7,0.6,1,0.8s0.7,0.3,1.1,0.3c0.4,0.1,0.8,0.1,1.3,0.1c0.4,0,0.8,0,1.2,0c0.3-0.1,0.7-0.1,1-0.2c0.3-0.1,0.7-0.4,1-0.8
			c0.3-0.4,0.4-0.8,0.4-1.2l0,0v-0.3l0,0C346.3,59.2,346.3,59.1,346.3,58.9z"/>
		<path class="st0" d="M372.2,55.1h-0.3H372.2c0-0.3-0.1-0.6-0.2-0.9c-0.1-0.3-0.4-0.8-0.9-1.1c-0.4-0.2-0.8-0.3-1.1-0.3
			c-0.9,0-1.4,0.4-1.9,0.7c-0.3,0.2-0.8,0.5-1.4,0.9c-0.5,0.3-1.2,0.6-2,0.8c-0.7,0.2-1.6,0.4-2.7,0.4c-1.2,0-2.3-0.2-3.2-0.6
			c-0.9-0.4-1.6-0.9-2.2-1.7s-1.1-1.7-1.5-3c-0.4-1.2-0.6-2.7-0.6-4.4s0.2-3.2,0.6-4.5s0.9-2.3,1.6-3.2c0.6-0.8,1.4-1.4,2.2-1.8
			c0.9-0.4,1.8-0.6,3-0.6c1.1,0,2,0.1,2.7,0.4c0.8,0.3,1.5,0.6,2,0.8c0.6,0.3,1,0.6,1.3,0.9c0.5,0.3,1,0.7,1.9,0.8h0.1
			c0.4,0,0.9-0.1,1.3-0.4c0.4-0.3,0.6-0.6,0.7-0.9c0.1-0.3,0.2-0.6,0.3-0.9c0-0.3,0.1-0.6,0.1-1c0-0.3,0-0.6,0-0.9
			c0-0.2-0.1-0.5-0.1-0.7c-0.1-0.3-0.2-0.5-0.3-0.8c-0.2-0.4-0.5-0.6-0.7-0.8c-0.4-0.4-0.8-0.7-1.4-1c-0.7-0.4-1.4-0.7-2.2-1
			c-0.8-0.3-1.6-0.5-2.5-0.7s-1.9-0.3-2.9-0.3c-2.2,0-4.2,0.4-6,1.2c-1.9,0.8-3.5,1.9-4.8,3.4s-2.3,3.3-3.1,5.4c-0.7,2.1-1,4.4-1,7
			c0,2.5,0.3,4.8,1,6.8c0.6,2,1.6,3.7,2.9,5.1c1.3,1.4,2.8,2.5,4.6,3.2c1.8,0.7,3.8,1.1,5.9,1.1c1.2,0,2.4-0.1,3.5-0.3
			c1-0.2,2-0.5,2.8-0.8s1.5-0.6,2.1-1c0.5-0.3,0.9-0.6,1.3-0.9c0.2-0.2,0.4-0.4,0.6-0.7c0.1-0.2,0.2-0.5,0.3-0.8
			c0.1-0.3,0.1-0.5,0.1-0.8c0-0.2,0-0.5,0-0.8C372.2,55.8,372.2,55.4,372.2,55.1z"/>
		<path class="st0" d="M125.2,29.5L125.2,29.5h-19.5c0,0-3.3-0.1-3.3,3.3s3.3,3.3,3.3,3.3l0,0h6.1v22.7c0,0-0.2,3.3,3.6,3.3
			c3.8,0,3.6-3.3,3.6-3.3V36h6.1l0,0c0,0,3.3,0.1,3.3-3.3C128.4,29.4,125.2,29.5,125.2,29.5z"/>
		<path class="st0" d="M211.8,32.8L211.8,32.8c0-0.8-0.1-1.8-0.8-2.5s-1.4-0.9-2.2-0.9l0,0h-9.1l0,0h-4.4h-0.1
			c-0.8,0-1.6,0.3-2.2,0.9c-0.6,0.7-0.8,1.6-0.9,2.3c-0.4,3.5-0.8,6.4-1.1,8.9c-0.4,2.5-0.8,4.7-1.2,6.4S189,51,188.6,52
			s-0.8,1.8-1.1,2.2c-0.4,0.5-0.7,0.7-0.8,0.8c-0.3,0.1-0.6,0.2-0.9,0.2l0,0l0,0c-0.8,0.1-3.1,0.5-3.1,3.4c0,3.2,2.9,3.4,3.3,3.4
			l0,0c1.3,0,2.5-0.2,3.7-0.6c1.2-0.4,2.2-1.1,3.1-2.1c0.9-1,1.6-2.2,2.2-3.6c0.6-1.4,1.2-3.1,1.6-5.1c0.5-2,0.9-4.3,1.4-7
			c0.4-2.3,0.7-5,1.1-7.9h1.1h4.4v22.7c0,0-0.2,3.3,3.6,3.3s3.6-3.3,3.6-3.3L211.8,32.8L211.8,32.8z"/>
		<path class="st0" d="M273.9,32.8L273.9,32.8c0-0.8-0.1-1.8-0.8-2.5c-0.7-0.7-1.4-0.9-2.2-0.9l0,0h-9.1l0,0h-4.4l0,0
			c-0.8,0-1.6,0.3-2.2,0.9c-0.6,0.7-0.8,1.6-0.9,2.3c-0.4,3.5-0.8,6.4-1.1,8.9c-0.4,2.5-0.8,4.7-1.2,6.4s-0.8,3.1-1.2,4.1
			s-0.8,1.8-1.1,2.2c-0.4,0.5-0.6,0.7-0.8,0.8c-0.3,0.1-0.6,0.2-0.9,0.2l0,0l0,0c-0.8,0.1-3.1,0.5-3.1,3.4c0,3.2,2.9,3.4,3.4,3.4
			l0,0c1.3,0,2.5-0.2,3.7-0.6c1.2-0.4,2.2-1.1,3.1-2.1c0.9-1,1.6-2.2,2.2-3.6c0.6-1.4,1.2-3.1,1.6-5.1c0.5-2,0.9-4.3,1.4-7
			c0.4-2.3,0.7-5,1.1-7.9h1.1h4.4v22.7c0,0-0.2,3.3,3.6,3.3c3.8,0,3.6-3.3,3.6-3.3V32.8H273.9z"/>
	</g>
</g>
<g>
	<path d="M21.6,52.5c-0.8-0.9-0.9-0.2-0.9,0.3c1,0.6,1.3,0.8,1.1,1.4c-0.9,0-1.4,0-2.6,0.8c0.1,0.3-0.1,0.4,0,0.6
		c0.9-0.2,2-0.6,2.9,0.1c0.1,0.2-0.3,1,0.2,1.4c0.5,0.1,0.9-0.7,1-1.7C22.8,54.2,23.1,53.7,21.6,52.5z"/>
	<path class="st1" d="M54.2,58.2"/>
	
		<radialGradient id="SVGID_1_" cx="45.4002" cy="54.6604" r="45.3699" gradientTransform="matrix(1 0 0 -1 0 100)" gradientUnits="userSpaceOnUse">
		<stop  offset="0.6648" style="stop-color:#FDB913"/>
		<stop  offset="0.6828" style="stop-color:#FDB515"/>
		<stop  offset="0.8976" style="stop-color:#F68A1F"/>
		<stop  offset="1" style="stop-color:#F47920"/>
	</radialGradient>
	<path class="st2" d="M45.4,0C20.3,0,0,20.3,0,45.4c0,21.4,14.8,39.3,34.7,44.1l-0.2-4.3l0.8-6.1l4.3-6.3l0.4,0.3
		c0.2-0.3,0.8-2.7,1-3c-2.7-0.5-3.8-1.1-6.2-2.3c-0.7,2-2.8,7.5-6.2,2.9c1.9,3.3-5.5,5.7-6.9,1.8c-0.1-0.3-0.3-0.8-0.3-0.5
		c0,0.7-0.3,1.2-2,1.1c-0.5-0.1-1.9-0.7-1.9-2.6c0-4.2,3.5-6.6,7.4-7.2c-0.5-0.6-1.6-0.6-2.1-1.2c-0.8-0.3-1.7-1.4-1.8-2
		c0-0.6-0.2-1.1-0.3-1.5c-0.3-0.6,0.3-1.2,0-1.8c-0.4-0.2-0.8-0.4-1.2-0.6C17.9,54.5,18,53.3,19,52c-0.1-0.5-0.2-1-0.3-1.4
		c-0.8-0.2-1.8-0.4-2.7-0.7c-2.4-0.8-5.3-2.9-6.5-4c-0.4-0.4-0.9-0.8-1.3-1.2l-0.1-0.1h0.1c-0.6-0.7-1-1.2-0.7-1.4
		c0.5-0.3,3.2-1.2,5.3-1.4c1.3-0.1,3.8-0.2,5.6-0.3c1.4-10.5,8.8-19,18.6-22.2c0.7-2.4,2.2-6.4,2.5-6.8c0.5-0.5,1.7,0.9,2.5,1.6
		c0.5,0.4,1.9,2.2,3.2,3.8h0.1c15.1,0,27.3,12.2,27.3,27.3c0,14.5-11.3,26.3-25.6,27.2c-0.4,0.5-0.8,1-1.3,1.5
		c-0.6,0.7-1.2,1.3-1.6,1.8l3.2,2.2l0.8,6.8l1.2,5.7c23.3-2,41.5-21.5,41.5-45.2C90.9,20.3,70.5,0,45.4,0z"/>
	<path d="M69.6,32.7c-3.1,0.4-6.5,4.7-9.7,4.5c-1.8-3.2-5.5-7.3-9.3-8.3c0.1-0.1,0.1-0.1,0.1-0.2c0.3-1.3-0.1-2.1-0.4-2.7
		c-0.2-0.5-1.5-3.7-3.2-6.4c0,0-6.2-9.6-8-8.7c-1.7,0.9-4.7,14.3-5.4,18.5c-7.7,3.1-11.8,6.7-15.4,12C12.9,40.9,7.8,42,7,42.9
		s2.7,3.6,3.4,4.2c0.7,0.7,3.4,2.2,3.9,2.5c1.7,0.8,3.3,1.6,3.3,1.6c0.2,4.6,2.8,6.3,2.5,8.4c0,0.6,0.1,1.2,0.3,1.7c0,0,0,0,0,0.1
		l0,0c0.4,1.1,2,1.3,2.3,1.6c-8.3,3.4-7.8,11-2.3,11.5c3.7,3.5,9.2-0.3,9.4-1.1c2.5,0,5.6-1.9,6.2-4.2c0.3,0.3,3,1.1,3,1.1l-2.3,2.9
		c-4.6,9.2-2.9,16.1-1.7,19.2l0,0c1.2,3,2.9,5.8,6.4,5.7c2.2,1,4.9,0.9,5.9-0.4c2.1,0.1,3.4-1,3.7-3.3c0-2.4-1-4.2-1.4-6.7
		c-0.5-2.4-0.5-4.9,0.7-6.9l6.8-5c6.1-4,11-9.1,13.9-16.7C74.6,50.3,73.8,41.4,69.6,32.7z M17.7,48c-0.1,0.9-0.1,1-0.1,1.8
		c0,0.2-0.9-0.2-1.9-0.8c-2.1-1.1-4.6-2.5-6.7-4.6c-1.2-1.2,1.4-0.9,3.2-0.8c2.2,0.1,4.6,0.8,4.6,0.8l-2.4,2h2.5L16.4,48l1.5-1
		C17.9,47,17.7,47.6,17.7,48z M40.4,14.2c0.2-0.1,2,1.7,2,1.7c1,1,1.5,1.5,2.7,2.9l0,0c2.1,2.6,3.6,5.9,4,6.9S49,27.4,47.9,28
		c-0.6,0.4-1.6,0.6-2.3,0.8L44,28.9l0.7-1.8l2.7-2.7L44,25.7l2.3-3.7c0,0-1.1,0.3-2.3,1c-1.1,0.6-1.8,1.1-2.3,1.5
		c1.4-0.4,1.2-0.4,2.5-0.8l-3.4,3.9l0,0c0,0-0.5-2.9-0.7-7C40.1,18.1,40.2,14.3,40.4,14.2z M38.5,17.7l-0.6,13.6
		c-1,0.5-1.3-0.5-2-0.4C37,24.8,37.1,23.5,38.5,17.7z M32.9,67.3c2.3,3.5-2.9,4.9-4.3,3.5c-0.4,3-4.8,4.7-6.9,1.8
		c-0.2-0.3-0.1-0.7-0.3-0.5c-0.6,0.5-1.6,0.7-2.1,0.5s-1.4-0.9-1.3-2.8c0.3-6,11.1-8.4,15.7-4.6C35.8,66.9,34.2,68.2,32.9,67.3z
		 M31.7,62.7c-1.3-0.3-3.7-0.5-4.9-0.6c1.3-2,6.3-1.1,8.1-2.3c1.3-0.9,2.2-3.7,2.2-3.7c0.7-3.4,1.1-1.8,1.8-5
		c0.1-0.4-0.2-1.9-2.1,2.3l-1.3,3.7c-1.2,2.3-4.6,2.6-6.8,2.3c-0.9-0.9-1-0.9-0.6-2.2l1.6-1.5c-0.1-1-3.5-1.5-2.1-3.6
		c2.9,0.9,3-1.5,0.9-1.4c-0.9-2.3,6-7.4,7.7-9.4c0.1-0.3,0.3-1.1-0.8-1l-4.5,5.2C30,46.2,29,47,28.1,47.7c-0.5,0.9-1,2.5-1.5,2.3
		c-0.1,0-0.2-0.1-0.3-0.1c-0.3-0.2-0.2-0.5-0.1-0.6c0.3-1.4,2.9-3.9,1.1-3.2l0,0l0,0l0,0l-0.1,0.1c-0.5,0.6-2.5,3.1-1.8,5.2l0,0l0,0
		c0,0.1,0,0.1,0,0.2c1,2.2,1.4,3,1.4,3.1c0,0.4-0.3,0.6-1.2,0.4c-0.8,0.6-1.6,0.9-2.3,1.8l0.3,1.4c0,0,0.3,0.4,0.4,0.4
		c1.4-0.3,1.9,0,2.7,1.1c-1.2,1.6-1.8,1.8-3.1,1.8c-0.9-0.3-1.8-0.4-2-1.8c-0.4-2.3,0-2.8-2.1-4.8c-0.8-1.9-0.7-2.5,0.6-4.3
		c-0.3-2.2-0.2-3.3,0.7-6.5l1.7,3.4l1.1,0.2c-0.4-3.3,0-5.3,0.5-8.5c1.1-0.7,2.3,2.8,3.5,5.4c0.4-0.6,0.8-1.4,1.2-2.1l0,0
		c0,0,0,0,0.1-0.1c0-0.1,0.1-0.1,0.1-0.2l0.1-0.1c0.6-0.6,1.9-2,3.4-3.1c1.9-1.3,3.1-3,4.5-2.6l0,0c0.1,0.1,0.2,0.1,0.4,0.2h0.1l0,0
		c1.3,0.7,3.7,1.9,2.7,4.5c-0.6,2.7-1.3,2.6-2.8,4.3l-5.5,4c-0.3,2.2,3.6,0.5,2.9-0.9c2.8,0.4,3.2-0.3,4.1-2.4
		c4.3-6.8,4.9-11.5,13.9-12l-4.5,4c2.5-1,3.8-0.9,6.3-1.2L53,39.1c1.8,0,2.3,0,4.3,0.6c-6.2,0.7-9.1,2-13.9,6.7
		c1.2,1.2,1.7-0.4,9.8,0.6c-4.7,0.8-7.7,1.4-9.9,3.1c2.5,0.2,4.1-0.8,7.8,0.9c-6.6-0.1-3.8,2.9-3.8,2.9
		C39.7,53.1,39.4,64.3,31.7,62.7z M35.1,64.9c0.9-0.2,4.7,0.6,6.2,0.4c1.5-0.1,2.8-7.5,3.7-7.7c0.8-0.2-0.2,7.3-0.4,7.7
		s-2.5,2.5-2.9,2.6C41.2,68,34.2,65.1,35.1,64.9z M58.9,55.5c-0.1,0.2-0.2,0.6-0.4,1c-0.3,0.6-0.4,2.4-0.9,3.1
		c-0.6,0.7-3.3,3.1-3.7,3.6s-2.2,2.2-2.5,2.9c0,0.1-0.1,0.2-0.1,0.3c0.2,4-0.2,1.2-5.6,7.7c-2.6,3-3.8,3.5-3.2,4.8
		c3.4-0.8,3.9,0.8,3.9,3c0,3.2,0.2,3.6,1.6,7.4c0.1,0.3,0.2,0.6,0.3,0.9s0.2,0.7,0.4,1.1c0.6,2.3-0.4,4.4-2.2,3.9
		c-1-0.2-1.9-1.1-2.6-2.2c2.9,5.7-3.3,4.2-4.5,1.2c0,2.2-1.2,1.9-2.4-0.9c-0.8-1.8-1.6-3.4-1.6-6.9c0-2.9,1-7.5,3-11.2
		c3.7-5,9.6-10,13.7-13.6l6.6-6C59,55.3,59,55.3,58.9,55.5z M47.6,45.3c3.9-2.5,8.1-3,12.1-0.7C56.1,44.5,52.1,44.7,47.6,45.3z"/>
</g>
</svg>
