<?xml version="1.0" encoding="utf-8"?>
<!-- Generator: Adobe Illustrator 21.1.0, SVG Export Plug-In . SVG Version: 6.00 Build 0)  -->
<svg version="1.1" id="Capa_1" xmlns="http://www.w3.org/2000/svg" xmlns:xlink="http://www.w3.org/1999/xlink" x="0px" y="0px"
	 viewBox="0 0 485.2 485.2" style="enable-background:new 0 0 485.2 485.2;" xml:space="preserve">
<style type="text/css">
	.st0{fill:#FF6F00;}
	.st1{fill:#FFFFFF;}
	.st2{fill:none;stroke:#FFFFFF;}
	.st3{fill:url(#SVGID_1_);}
</style>
<g>
	<path class="st0" d="M242.6,0c-100.5,0-182,81.5-182,182c0,40.9,13.5,78.7,36.3,109.1l145.6,194.2L388.3,291
		c22.8-30.4,36.3-68.1,36.3-109.1C424.6,81.5,343.1,0,242.6,0z M242.6,303.3c-67,0-121.3-54.3-121.3-121.3S175.6,60.7,242.6,60.7
		S363.9,115,363.9,182C363.9,248.9,309.6,303.3,242.6,303.3z"/>
</g>
<path class="st1" d="M388.5,176c0-96.3-49.8-158-146.1-158S79.5,84.9,79.5,181.2c0,81.3,57,132.8,119.6,169.6
	c1.2,4.6,2.3,8.8,3.5,11.9l0,0c4.6,11.5,11.1,22.3,24.6,21.9c8.4,3.8,18.8,3.5,22.6-1.5c8.1,0.4,13-3.8,14.2-12.7
	c0-5.4-1.2-10-2.7-15C330.5,314.5,388.5,266.2,388.5,176z"/>
<g>
	<path d="M151.1,209.2c-3.1-3.5-3.5-0.8-3.5,1.2c3.8,2.3,5,3.1,4.2,5.4c-3.5,0-5.4,0-10,3.1c0.4,1.2-0.4,1.5,0,2.3
		c3.5-0.8,7.7-2.3,11.1,0.4c0.4,0.8-1.2,3.8,0.8,5.4c1.9,0.4,3.5-2.7,3.8-6.5C155.7,215.7,156.8,213.8,151.1,209.2z"/>
	<path class="st2" d="M276.2,231.1"/>
	
		<radialGradient id="SVGID_1_" cx="242.3017" cy="253.7196" r="174.1434" gradientTransform="matrix(1 0 0 1 0 -72)" gradientUnits="userSpaceOnUse">
		<stop  offset="0.6648" style="stop-color:#FDB913"/>
		<stop  offset="0.6828" style="stop-color:#FDB515"/>
		<stop  offset="0.8976" style="stop-color:#F68A1F"/>
		<stop  offset="1" style="stop-color:#F47920"/>
	</radialGradient>
	<path class="st3" d="M242.4,7.7C146.1,7.7,68.2,85.6,68.2,182c0,82.1,56.8,150.8,133.1,169.2l-0.8-16.5l3.1-23.4l16.5-24.2l1.5,1.2
		c0.8-1.2,3.1-10.4,3.8-11.5c-10.4-1.9-14.6-4.2-23.8-8.8c-2.7,7.7-10.7,28.8-23.8,11.1c7.3,12.7-21.1,21.9-26.5,6.9
		c-0.4-1.2-1.2-3.1-1.2-1.9c0,2.7-1.2,4.6-7.7,4.2c-1.9-0.4-7.3-2.7-7.3-10c0-16.1,13.4-25.3,28.4-27.6c-1.9-2.3-6.1-2.3-8.1-4.6
		c-3.1-1.2-6.5-5.4-6.9-7.7c0-2.3-0.8-4.2-1.2-5.8c-1.2-2.3,1.2-4.6,0-6.9c-1.5-0.8-3.1-1.5-4.6-2.3c-6.1-6.5-5.8-11.1-1.9-16.1
		c-0.4-1.9-0.8-3.8-1.2-5.4c-3.1-0.8-6.9-1.5-10.4-2.7c-9.2-3.1-20.3-11.1-24.9-15.3c-1.5-1.5-3.5-3.1-5-4.6l-0.4-0.4h0.4
		c-2.3-2.7-3.8-4.6-2.7-5.4c1.9-1.2,12.3-4.6,20.3-5.4c5-0.4,14.6-0.8,21.5-1.2c5.4-40.3,33.8-72.9,71.4-85.2
		c2.7-9.2,8.4-24.6,9.6-26.1c1.9-1.9,6.5,3.5,9.6,6.1c1.9,1.5,7.3,8.4,12.3,14.6h0.4c57.9,0,104.8,46.8,104.8,104.8
		c0,55.6-43.4,100.9-98.2,104.4c-1.5,1.9-3.1,3.8-5,5.8c-2.3,2.7-4.6,5-6.1,6.9l12.3,8.4l3.1,26.1l4.6,21.9
		c89.4-7.7,159.2-82.5,159.2-173.4C417,85.6,338.7,7.7,242.4,7.7z"/>
	<path d="M335.3,133.2c-11.9,1.5-24.9,18-37.2,17.3c-6.9-12.3-21.1-28-35.7-31.8c0.4-0.4,0.4-0.4,0.4-0.8c1.2-5-0.4-8.1-1.5-10.4
		c-0.8-1.9-5.8-14.2-12.3-24.6c0,0-23.8-36.8-30.7-33.4c-6.5,3.5-18,54.9-20.7,71c-29.5,11.9-45.3,25.7-59.1,46
		c-20.7-1.9-40.3,2.3-43.4,5.8s10.4,13.8,13,16.1c2.7,2.7,13,8.4,15,9.6c6.5,3.1,12.7,6.1,12.7,6.1c0.8,17.7,10.7,24.2,9.6,32.2
		c0,2.3,0.4,4.6,1.2,6.5c0,0,0,0,0,0.4l0,0c1.5,4.2,7.7,5,8.8,6.1c-31.8,13-29.9,42.2-8.8,44.1c14.2,13.4,35.3-1.2,36.1-4.2
		c9.6,0,21.5-7.3,23.8-16.1c1.2,1.2,11.5,4.2,11.5,4.2l-8.8,11.1c-17.7,35.3-11.1,61.8-6.5,73.7l0,0c4.6,11.5,11.1,22.3,24.6,21.9
		c8.4,3.8,18.8,3.5,22.6-1.5c8.1,0.4,13-3.8,14.2-12.7c0-9.2-3.8-16.1-5.4-25.7c-1.9-9.2-1.9-18.8,2.7-26.5l26.1-19.2
		c23.4-15.3,42.2-34.9,53.3-64.1C354.5,200.8,351.4,166.6,335.3,133.2z M136.1,191.9c-0.4,3.5-0.4,3.8-0.4,6.9
		c0,0.8-3.5-0.8-7.3-3.1c-8.1-4.2-17.7-9.6-25.7-17.7c-4.6-4.6,5.4-3.5,12.3-3.1c8.4,0.4,17.7,3.1,17.7,3.1l-9.2,7.7h9.6l-1.9,6.1
		l5.8-3.8C136.9,188.1,136.1,190.4,136.1,191.9z M223.2,62.2c0.8-0.4,7.7,6.5,7.7,6.5c3.8,3.8,5.8,5.8,10.4,11.1l0,0
		c8.1,10,13.8,22.6,15.3,26.5c1.5,3.8-0.4,6.5-4.6,8.8c-2.3,1.5-6.1,2.3-8.8,3.1l-6.1,0.4l2.7-6.9l10.4-10.4l-13,5l8.8-14.2
		c0,0-4.2,1.2-8.8,3.8c-4.2,2.3-6.9,4.2-8.8,5.8c5.4-1.5,4.6-1.5,9.6-3.1l-13,15l0,0c0,0-1.9-11.1-2.7-26.9
		C222.1,77.2,222.5,62.6,223.2,62.2z M215.9,75.7l-2.3,52.2c-3.8,1.9-5-1.9-7.7-1.5C210.2,102.9,210.6,97.9,215.9,75.7z M194.5,266
		c8.8,13.4-11.1,18.8-16.5,13.4c-1.5,11.5-18.4,18-26.5,6.9c-0.8-1.2-0.4-2.7-1.2-1.9c-2.3,1.9-6.1,2.7-8.1,1.9
		c-1.9-0.8-5.4-3.5-5-10.7c1.2-23,42.6-32.2,60.2-17.7C205.6,264.4,199.4,269.4,194.5,266z M189.8,248.3c-5-1.2-14.2-1.9-18.8-2.3
		c5-7.7,24.2-4.2,31.1-8.8c5-3.5,8.4-14.2,8.4-14.2c2.7-13,4.2-6.9,6.9-19.2c0.4-1.5-0.8-7.3-8.1,8.8l-5,14.2
		c-4.6,8.8-17.7,10-26.1,8.8c-3.5-3.5-3.8-3.5-2.3-8.4l6.1-5.8c-0.4-3.8-13.4-5.8-8.1-13.8c11.1,3.5,11.5-5.8,3.5-5.4
		c-3.5-8.8,23-28.4,29.5-36.1c0.4-1.2,1.2-4.2-3.1-3.8l-17.3,20c-3.5,2.7-7.3,5.8-10.7,8.4c-1.9,3.5-3.8,9.6-5.8,8.8
		c-0.4,0-0.8-0.4-1.2-0.4c-1.2-0.8-0.8-1.9-0.4-2.3c1.2-5.4,11.1-15,4.2-12.3l0,0l0,0l0,0l-0.4,0.4c-1.9,2.3-9.6,11.9-6.9,20l0,0
		l0,0c0,0.4,0,0.4,0,0.8c3.8,8.4,5.4,11.5,5.4,11.9c0,1.5-1.2,2.3-4.6,1.5c-3.1,2.3-6.1,3.5-8.8,6.9l1.2,5.4c0,0,1.2,1.5,1.5,1.5
		c5.4-1.2,7.3,0,10.4,4.2c-4.6,6.1-6.9,6.9-11.9,6.9c-3.5-1.2-6.9-1.5-7.7-6.9c-1.5-8.8,0-10.7-8.1-18.4c-3.1-7.3-2.7-9.6,2.3-16.5
		c-1.2-8.4-0.8-12.7,2.7-24.9l6.5,13l4.2,0.8c-1.5-12.7,0-20.3,1.9-32.6c4.2-2.7,8.8,10.7,13.4,20.7c1.5-2.3,3.1-5.4,4.6-8.1l0,0
		c0,0,0,0,0.4-0.4c0-0.4,0.4-0.4,0.4-0.8l0.4-0.4c2.3-2.3,7.3-7.7,13-11.9c7.3-5,11.9-11.5,17.3-10l0,0c0.4,0.4,0.8,0.4,1.5,0.8h0.4
		l0,0c5,2.7,14.2,7.3,10.4,17.3c-2.3,10.4-5,10-10.7,16.5l-21.1,15.3c-1.2,8.4,13.8,1.9,11.1-3.5c10.7,1.5,12.3-1.2,15.7-9.2
		c16.5-26.1,18.8-44.1,53.3-46l-17.3,15.3c9.6-3.8,14.6-3.5,24.2-4.6l-6.1,8.1c6.9,0,8.8,0,16.5,2.3c-23.8,2.7-34.9,7.7-53.3,25.7
		c4.6,4.6,6.5-1.5,37.6,2.3c-18,3.1-29.5,5.4-38,11.9c9.6,0.8,15.7-3.1,29.9,3.5c-25.3-0.4-14.6,11.1-14.6,11.1
		C220.5,211.5,219.4,254.5,189.8,248.3z M202.9,256.8c3.5-0.8,18,2.3,23.8,1.5c5.8-0.4,10.7-28.8,14.2-29.5c3.1-0.8-0.8,28-1.5,29.5
		s-9.6,9.6-11.1,10C226.3,268.7,199.4,257.5,202.9,256.8z M294.2,220.7c-0.4,0.8-0.8,2.3-1.5,3.8c-1.2,2.3-1.5,9.2-3.5,11.9
		c-2.3,2.7-12.7,11.9-14.2,13.8c-1.5,1.9-8.4,8.4-9.6,11.1c0,0.4-0.4,0.8-0.4,1.2c0.8,15.3-0.8,4.6-21.5,29.5
		c-10,11.5-14.6,13.4-12.3,18.4c13-3.1,15,3.1,15,11.5c0,12.3,0.8,13.8,6.1,28.4c0.4,1.2,0.8,2.3,1.2,3.5s0.8,2.7,1.5,4.2
		c2.3,8.8-1.5,16.9-8.4,15c-3.8-0.8-7.3-4.2-10-8.4c11.1,21.9-12.7,16.1-17.3,4.6c0,8.4-4.6,7.3-9.2-3.5c-3.1-6.9-6.1-13-6.1-26.5
		c0-11.1,3.8-28.8,11.5-43c14.2-19.2,36.8-38.4,52.6-52.2l25.3-23C294.6,219.9,294.6,219.9,294.2,220.7z M250.9,181.6
		c15-9.6,31.1-11.5,46.4-2.7C283.5,178.5,268.1,179.3,250.9,181.6z"/>
</g>
</svg>
