<?xml version="1.0" encoding="utf-8"?>
<!-- Generator: Adobe Illustrator 21.1.0, SVG Export Plug-In . SVG Version: 6.00 Build 0)  -->
<svg version="1.1" id="Layer_1" xmlns="http://www.w3.org/2000/svg" xmlns:xlink="http://www.w3.org/1999/xlink" x="0px" y="0px"
	 viewBox="0 0 512 512" style="enable-background:new 0 0 512 512;" xml:space="preserve">
<style type="text/css">
	.st0{fill:#FF6F00;}
</style>
<g>
	<g>
		<g>
			<path class="st0" d="M213.2,234.4h-46.3c-4.5,0-8.1,3.6-8.1,8.1c0,4.5,3.6,8.1,8.1,8.1h46.3c4.5,0,8.1-3.6,8.1-8.1
				C221.3,238,217.7,234.4,213.2,234.4z"/>
			<path class="st0" d="M409.6,480.1h46.3c4.5,0,8.1-3.6,8.1-8.1c0-4.5-3.6-8.1-8.1-8.1h-46.3c-4.5,0-8.1,3.6-8.1,8.1
				C401.5,476.5,405.1,480.1,409.6,480.1z"/>
			<path class="st0" d="M152,79.2h46.3c4.5,0,8.1-3.6,8.1-8.1c0-4.5-3.6-8.1-8.1-8.1H152c-4.5,0-8.1,3.6-8.1,8.1
				S147.5,79.2,152,79.2z"/>
			<path class="st0" d="M213.2,261.3h-46.3c-4.5,0-8.1,3.6-8.1,8.1s3.6,8.1,8.1,8.1h46.3c4.5,0,8.1-3.6,8.1-8.1
				C221.3,264.9,217.7,261.3,213.2,261.3z"/>
			<path class="st0" d="M166.9,448.9h46.3c4.5,0,8.1-3.6,8.1-8.1s-3.6-8.1-8.1-8.1h-46.3c-4.5,0-8.1,3.6-8.1,8.1
				C158.8,445.3,162.4,448.9,166.9,448.9z"/>
			<path class="st0" d="M166.9,475.8h46.3c4.5,0,8.1-3.6,8.1-8.1c0-4.5-3.6-8.1-8.1-8.1h-46.3c-4.5,0-8.1,3.6-8.1,8.1
				C158.8,472.2,162.4,475.8,166.9,475.8z"/>
			<path class="st0" d="M497.8,401h-56.5v-85.7c0-4.5-3.6-8.1-8.1-8.1s-8.1,3.6-8.1,8.1V401h-62.6c-7.8,0-14.2,6.4-14.2,14.2v27.2
				v53.4h-91.8c-0.7,0-1.3-0.6-1.3-1.3V491V316.4v-25.9v-91.9c0-0.7,0.6-1.3,1.3-1.3H304v92.2c0,3.1,1.8,5.9,4.6,7.3
				c2.8,1.4,6.1,1,8.5-0.9l23-18.2l23,18.2c1.5,1.1,3.2,1.7,5,1.7c1.2,0,2.4-0.3,3.5-0.8c2.8-1.4,4.6-4.2,4.6-7.3v-92.2h47.6
				c0.7,0,1.3,0.6,1.3,1.3v89.8c0,4.5,3.6,8.1,8.1,8.1s8.1-3.6,8.1-8.1v-89.8c0-9.6-7.8-17.5-17.5-17.5h-55.6h-56h-55.6
				c-0.4,0-0.9,0-1.3,0.1v-65.3c0-3.8-1.1-7.4-2.9-10.5c1.8-2.4,2.9-5.3,2.9-8.5V41.4V14.2C255.2,6.4,248.8,0,241,0H105.7
				c-7.8,0-14.2,6.4-14.2,14.2v27.2v53.4H21c-11.6,0-21,9.4-21,21v174.6c0,4.9,1.7,9.4,4.5,12.9C1.7,307,0,311.5,0,316.4V491
				c0,11.6,9.4,21,21,21h163.5c4.5,0,8.1-3.6,8.1-8.1c0-4.5-3.6-8.1-8.1-8.1H21c-2.7,0-4.9-2.2-4.9-4.9V316.4c0-2.7,2.2-4.9,4.9-4.9
				h70.5v92.2c0,3.1,1.8,5.9,4.6,7.3c2.8,1.4,6.1,1,8.5-0.9l23-18.2l23,18.2c1.5,1.1,3.2,1.7,5,1.7c1.2,0,2.4-0.3,3.5-0.8
				c2.8-1.4,4.6-4.2,4.6-7.3v-92.2h70.5c2.7,0,4.9,2.2,4.9,4.9V491c0,2.7-2.2,4.9-4.9,4.9h-22c-4.5,0-8.1,3.6-8.1,8.1
				c0,4.5,3.6,8.1,8.1,8.1h22c4.3,0,8.4-1.3,11.7-3.6c2.9,2.2,6.6,3.6,10.6,3.6l105.9,0c0.1,0,0.1,0,0.2,0l0,0h135.3
				c7.8,0,14.2-6.4,14.2-14.2v-55.4v-27.2C512,407.4,505.6,401,497.8,401z M320.2,197.3h39.9v75.5L345.1,261c-1.5-1.2-3.2-1.7-5-1.7
				s-3.5,0.6-5,1.7l-14.9,11.8L320.2,197.3L320.2,197.3z M107.7,111h39.9v75.5l-14.9-11.8c-1.5-1.2-3.2-1.7-5-1.7s-3.5,0.6-5,1.7
				l-14.9,11.8C107.6,186.5,107.6,111,107.7,111z M147.5,387l-14.9-11.8c-1.5-1.2-3.2-1.7-5-1.7s-3.5,0.6-5,1.7L107.7,387v-75.5
				h39.9V387z M239,198.6v91.9c0,2.7-2.2,4.9-4.9,4.9h-78.5h-56H21c-2.7,0-4.9-2.2-4.9-4.9V115.9c0-2.7,2.2-4.9,4.9-4.9h70.5v92.2
				c0,3.1,1.8,5.9,4.6,7.3c2.8,1.4,6.1,1,8.5-0.9l23-18.2l23,18.2c1.5,1.1,3.2,1.7,5,1.7c1.2,0,2.4-0.3,3.5-0.8
				c2.8-1.4,4.6-4.2,4.6-7.3V111h70.5c2.7,0,4.9,2.2,4.9,4.9L239,198.6L239,198.6z M239,94.8h-4.9h-78.5h-48V49.5H239V94.8z
				 M239,33.4H107.7V16.2H239V33.4z M495.8,495.8H364.5v-45.3h131.4L495.8,495.8L495.8,495.8z M495.8,434.3H364.5v-17.2h68.7h62.7
				L495.8,434.3L495.8,434.3z"/>
		</g>
	</g>
</g>
</svg>
