<?xml version="1.0" encoding="utf-8"?>
<!-- Generator: Adobe Illustrator 21.1.0, SVG Export Plug-In . SVG Version: 6.00 Build 0)  -->
<svg version="1.1" id="Layer_1" xmlns="http://www.w3.org/2000/svg" xmlns:xlink="http://www.w3.org/1999/xlink" x="0px" y="0px"
	 viewBox="0 0 512 512" style="enable-background:new 0 0 512 512;" xml:space="preserve">
<style type="text/css">
	.st0{fill:#FF6F00;}
</style>
<g>
	<g>
		<path class="st0" d="M404.5,138.5c-0.9-1.8-2.4-3.2-4.3-3.9l-74.4-26.7c-4-1.4-8.3,0.6-9.7,4.6l-18,50.1c-0.7,1.9-0.6,4,0.3,5.8
			c0.9,1.8,2.4,3.2,4.3,3.9l74.4,26.7c0.8,0.3,1.7,0.4,2.6,0.4c1.1,0,2.2-0.2,3.2-0.7c1.8-0.9,3.2-2.4,3.9-4.3l18-50.1
			C405.5,142.4,405.4,140.3,404.5,138.5z M325.7,164.4l-10.7-3.9l12.8-35.7l10.7,3.9L325.7,164.4z M350,173.1l-10-3.6l12.8-35.7
			l10,3.6L350,173.1z M375.1,182.1l-10.7-3.9l12.8-35.7l10.7,3.9L375.1,182.1z"/>
	</g>
</g>
<g>
	<g>
		<path class="st0" d="M73.5,429.6c-8.5-8.5-22.5-8.5-31,0c-8.5,8.5-8.5,22.4,0,31c4.3,4.3,9.9,6.4,15.5,6.4
			c5.6,0,11.2-2.1,15.5-6.4C82,452.1,82,438.1,73.5,429.6z M62.7,449.8c-2.6,2.6-6.9,2.6-9.5,0c-2.6-2.6-2.6-6.9,0-9.5
			c1.3-1.3,3-2,4.7-2s3.4,0.7,4.7,2C65.3,443,65.3,447.2,62.7,449.8z"/>
	</g>
</g>
<g>
	<g>
		<path class="st0" d="M485.6,34c-1.8-2-4.5-2.9-7.1-2.4s-4.8,2.3-5.7,4.8l-31.2,84.1L331.7,79.8c7.7-29.8,30.4-53.1,59.5-61.8
			l-22.5,61.2c-1.5,3.9,0.6,8.3,4.5,9.8c3.9,1.5,8.3-0.6,9.8-4.5l27.3-74.2c0.9-2.5,0.5-5.3-1.2-7.4c-1.7-2.1-4.3-3.1-7-2.8
			c-40.9,5.7-74,35.2-84.7,74.4l-23.6-8.7c-2.1-0.8-4.5-0.6-6.4,0.5s-3.3,3-3.7,5.2l-11.2,60.7c-2.1,11.5-7.6,22-15.9,30.3
			l-17.1,17.1c-3,3-3,7.8,0,10.8c3,3,7.8,3,10.8,0l17.1-17.1c10.5-10.5,17.4-23.7,20.1-38.3l9.6-51.8l146.4,54.2
			c3.9,1.5,8.3-0.6,9.8-4.5l29.1-78.3c21.9,34,17.7,79.8-11.8,109.2c-5.6,5.6-10.7,9.6-15.7,12.5c-3,1.7-36.9,16.3-36.9,16.3
			l-72.6,30.5c-8.1,3.4-15.4,8.3-21.7,14.6l-15.8,15.8c-3,3-3,7.8,0,10.8c1.5,1.5,3.4,2.2,5.4,2.2c1.9,0,3.9-0.7,5.4-2.2l15.8-15.8
			c4.9-4.9,10.5-8.7,16.8-11.3l89.6-37.7c0.1,0,0.1-0.1,0.2-0.1c1.7-0.7,16.5-7.2,21.3-9.9c6.2-3.5,12.4-8.4,19-15
			C519.5,136.3,521.4,74.5,485.6,34z"/>
	</g>
</g>
<g>
	<g>
		<path class="st0" d="M268,325.7l-92.1-92.1c-3-3-7.8-3-10.8,0c-3,3-3,7.8,0,10.8l4.7,4.7L17.7,401.3c-10.9,10.9-17,25.5-17,41
			s6,30,17,40.9c10.9,10.9,25.5,17,41,17s30-6,40.9-17l152.2-152.2l5.4,5.4c1.5,1.5,3.4,2.2,5.4,2.2c1.9,0,3.9-0.7,5.4-2.2
			C270.9,333.5,270.9,328.7,268,325.7z M88.8,472.5c-8.1,8.1-18.8,12.5-30.2,12.5s-22.1-4.4-30.2-12.5c-16.6-16.6-16.6-43.7,0-60.4
			l152.2-152.2l60.4,60.4L88.8,472.5z"/>
	</g>
</g>
<g>
	<g>
		<path class="st0" d="M492.4,429.6l-12.8-12.8c-3-3-7.8-3-10.8,0c-3,3-3,7.8,0,10.8l12.8,12.8c6.2,6.2,9.7,14.5,9.7,23.3
			s-3.4,17.1-9.7,23.4c-6.2,6.2-14.5,9.7-23.4,9.7c-8.8,0-17.1-3.4-23.4-9.7l-75.7-75.7c5.5-10.1,4-23.1-4.6-31.6
			s-21.5-10.1-31.6-4.6l-6.2-6.2l46.7-46.7l6.2,6.2c-2.1,3.9-3.2,8.2-3.2,12.7c0,7.1,2.8,13.9,7.8,18.9c8.6,8.6,21.5,10.1,31.6,4.6
			l42.6,42.6c3,3,7.8,3,10.8,0c3-3,3-7.8,0-10.8l-47.2-47.2c-3-3-7.8-3-10.8,0c-4.5,4.5-11.8,4.5-16.3,0s-4.5-11.8,0-16.3
			c1.4-1.4,2.2-3.4,2.2-5.4s-0.8-4-2.2-5.4l-16.2-16.2c-3-3-7.8-3-10.8,0l-1.2,1.2l-16.7-16.7c-1.4-1.4-3.4-2.2-5.4-2.2
			s-4,0.8-5.4,2.2l-3.9,3.9L125.4,94.4l-4.4-31.3c-0.3-2.5-1.9-4.6-4.1-5.7L62.2,30.1c-2.9-1.5-6.5-0.9-8.8,1.4L26.1,58.9
			c-2.3,2.3-2.9,5.8-1.4,8.8l27.2,54.6c1.1,2.2,3.3,3.8,5.7,4.1l31.3,4.4l22.7,22.7c3,3,7.8,3,10.8,0c3-3,3-7.8,0-10.8l-24.5-24.5
			c-1.2-1.2-2.7-1.9-4.3-2.2l-29.9-4.2l-23-46.1l19.6-19.6l46.1,23l4.2,29.9c0.2,1.6,1,3.2,2.2,4.3l201.9,201.9l-14.9,14.9
			L138.5,158.8c-3-3-7.8-3-10.8,0c-3,3-3,7.8,0,10.8L289,330.9l-3.9,3.9c-3,3-3,7.8,0,10.8l16.7,16.7l-1.2,1.2c-3,3-3,7.8,0,10.8
			l16.2,16.2c3,3,7.8,3,10.8,0c4.5-4.5,11.8-4.5,16.3,0c2.2,2.2,3.4,5.1,3.4,8.1c0,3.1-1.2,6-3.4,8.1c-1.4,1.4-2.2,3.4-2.2,5.4
			s0.8,4,2.2,5.4l80.3,80.3c9.1,9.1,21.2,14.1,34.1,14.1s25-5,34.1-14.1c9.1-9.1,14.1-21.2,14.1-34.1
			C506.5,450.9,501.5,438.8,492.4,429.6z M301.2,340.2l33.5-33.5l11.3,11.3l-33.5,33.5L301.2,340.2z"/>
	</g>
</g>
</svg>
