<?xml version="1.0" encoding="utf-8"?>
<!-- Generator: Adobe Illustrator 21.1.0, SVG Export Plug-In . SVG Version: 6.00 Build 0)  -->
<svg version="1.1" id="Layer_1" xmlns="http://www.w3.org/2000/svg" xmlns:xlink="http://www.w3.org/1999/xlink" x="0px" y="0px"
	 viewBox="0 0 512 512" style="enable-background:new 0 0 512 512;" xml:space="preserve">
<style type="text/css">
	.st0{fill:#FF6F00;}
</style>
<g>
	<g>
		<g>
			<path class="st0" d="M490.4,286.3V120.4c0-22.3-18.1-40.4-40.4-40.4h-35.5L399,37.1c-3.3-9.1-10.5-16.2-19.7-19.3
				c-9.2-3.1-19.1-1.8-27.3,3.5l-36.4,23.6l-2.8-7.8c-3.3-9.1-10.5-16.2-19.7-19.3c-9.2-3.1-19.1-1.8-27.3,3.5l-19.1,12.4
				c-3.7,2.4-4.8,7.4-2.4,11.2c2.4,3.7,7.4,4.8,11.2,2.4l19.1-12.4c4-2.6,8.8-3.2,13.4-1.7c4.5,1.5,8,5,9.7,9.4l4.1,11.3L178.2,134
				h-56.5l106.4-69c3.7-2.4,4.8-7.4,2.4-11.2C228,50,223,49,219.3,51.4L175.1,80c-0.3,0-0.7-0.1-1-0.1H62c-34.2,0-62,27.8-62,62
				v302.7c0,28.2,23,51.2,51.2,51.2h388c28.2,0,51.2-23,51.2-51.2v-32.9c0-4.5-3.6-8.1-8.1-8.1c-4.5,0-8.1,3.6-8.1,8.1v32.9
				c0,19.3-15.7,35-35,35H91.6V239.3c0-4.5-3.6-8.1-8.1-8.1s-8.1,3.6-8.1,8.1v240.4H51.2c-19.3,0-35-15.7-35-35V183.9
				c11.3,12.5,27.7,20.3,45.8,20.3h388c9.1,0,17.5-3,24.3-8.1v89.2H320.7c-28.2,0-51.2,23-51.2,51.2v0.2c0,28.2,23,51.2,51.2,51.2
				h161.7c16.3,0,29.6-13.3,29.6-29.6v-43.3C512,301.3,502.9,289.9,490.4,286.3z M450,96.1c13.4,0,24.3,10.9,24.3,24.3V134h-40.1
				l-13.7-37.8C420.4,96.1,450,96.1,450,96.1z M450,188H62c-25.3,0-45.8-20.6-45.8-45.8V142c0-25.3,20.5-45.8,45.8-45.8h88.3
				L91.9,134H72.8c-4.5,0-8.1,3.6-8.1,8.1c0,4.5,3.6,8.1,8.1,8.1h21.4c0.1,0,0.2,0,0.2,0h86c0.1,0,0.2,0,0.2,0h161.6
				c4.5,0,8.1-3.6,8.1-8.1c0-4.5-3.6-8.1-8.1-8.1H207.9l152.9-99.1c4-2.6,8.8-3.2,13.4-1.7c4.5,1.5,8,5,9.7,9.4l33.2,91.4h-42.4
				c-4.5,0-8.1,3.6-8.1,8.1c0,4.5,3.6,8.1,8.1,8.1h53.7c0.1,0,0.3,0,0.4,0h45.6v13.6C474.3,177.1,463.4,188,450,188z M495.8,358.2
				c0,7.4-6,13.5-13.5,13.5H320.7c-19.3,0-35-15.7-35-35v-0.2c0-19.3,15.7-35,35-35h161.6c0.1,0,0.1,0,0.2,0
				c7.4,0,13.4,6.1,13.4,13.5L495.8,358.2L495.8,358.2z"/>
			<path class="st0" d="M326.1,312.2c-13.4,0-24.3,10.9-24.3,24.3s10.9,24.3,24.3,24.3s24.3-10.9,24.3-24.3S339.4,312.2,326.1,312.2
				z M326.1,344.6c-4.5,0-8.1-3.6-8.1-8.1s3.6-8.1,8.1-8.1c4.5,0,8.1,3.6,8.1,8.1C334.1,341,330.5,344.6,326.1,344.6z"/>
		</g>
	</g>
</g>
</svg>
